<svg width="72" height="99" viewBox="0 0 72 99" fill="none" xmlns="http://www.w3.org/2000/svg">
<path d="M13 84.4254V31.7821C13 26.1668 17.5302 19.7858 24.9954 19.7858H35.9699V15" stroke="#ECB500" stroke-width="3" stroke-linecap="round"/>
<path d="M58.9453 84.4254V31.7821C58.9453 26.1668 54.4151 19.7858 46.9499 19.7858H35.9754V15" stroke="#ECB500" stroke-width="3" stroke-linecap="round"/>
<path d="M39.6719 35.4831V25.2734H46.6267C49.4979 25.2734 52.6882 29.2297 52.6882 32.7392" stroke="#ECB500" stroke-width="3" stroke-linecap="round" stroke-linejoin="round"/>
<ellipse cx="27.0393" cy="29.5475" rx="4.59399" ry="4.59433" stroke="#ECB500" stroke-width="3"/>
<ellipse cx="21.8088" cy="64.5162" rx="4.59399" ry="4.59433" stroke="#ECB500" stroke-width="3"/>
<path d="M48.4779 73.1314V58.8379C51.1577 58.8379 52.8167 60.1141 52.8167 62.9855M42.7992 73.3866H25.8908C23.849 73.3866 22.2539 71.5361 22.2539 69.0475M22.2539 79.0657H51.2216C51.2216 81.8733 48.1589 85 45.5429 85" stroke="#ECB500" stroke-width="3" stroke-linecap="round" stroke-linejoin="round"/>
<path d="M17.9779 36.7598C17.9779 39.6312 20.0196 41.2903 22.8909 41.2903H31.377M44.3295 41.2903H31.377M41.0754 51.3723C48.2216 51.3723 52.7518 46.7141 52.7518 37.9083V52.9037M17.9141 51.6275C24.3046 52.1068 27.5043 50.0858 29.5765 47.1608M31.377 41.2903C31.377 43.3428 30.8147 45.4131 29.5765 47.1608M35.7158 51.6275C32.5255 51.6275 31.5782 50.4581 29.5765 47.1608" stroke="#ECB500" stroke-width="3" stroke-linecap="round" stroke-linejoin="round"/>
<path d="M29.4648 54.3066C29.4648 56.4124 31.9533 59.0286 34.2502 59.0286H42.5449C40.9721 64.8991 39.1633 67.5153 33.7398 67.5153" stroke="#ECB500" stroke-width="3" stroke-linecap="round" stroke-linejoin="round"/>
</svg>
